<svg xmlns="http://www.w3.org/2000/svg" version="1.1" xmlns:xlink="http://www.w3.org/1999/xlink" xmlns:svgjs="http://svgjs.dev/svgjs" width="1000" height="1000" viewBox="0 0 1000 1000"><rect width="1000" height="1000" fill="#000000"></rect><g transform="matrix(0.7,0,0,0.7,149.57575757575756,282.1265587044535)"><svg viewBox="0 0 396 247" data-background-color="#ffffff" preserveAspectRatio="xMidYMid meet" height="623" width="1000" xmlns="http://www.w3.org/2000/svg" xmlns:xlink="http://www.w3.org/1999/xlink"><g id="tight-bounds" transform="matrix(1,0,0,1,0.2400000000000091,-0.09999999999999432)"><svg viewBox="0 0 395.52 247.2" height="247.2" width="395.52"><g><svg></svg></g><g><svg viewBox="0 0 395.52 247.2" height="247.2" width="395.52"><g transform="matrix(1,0,0,1,75.54432,88.01502092749315)"><svg viewBox="0 0 244.43135999999998 71.16995814501368" height="71.16995814501368" width="244.43135999999998"><g><svg viewBox="0 0 244.43135999999998 71.16995814501368" height="71.16995814501368" width="244.43135999999998"><g><svg viewBox="0 0 244.43135999999998 71.16995814501368" height="71.16995814501368" width="244.43135999999998"><g><svg viewBox="0 0 244.43135999999998 71.16995814501368" height="71.16995814501368" width="244.43135999999998"><g id="textblocktransform"><svg viewBox="0 0 244.43135999999998 71.16995814501368" height="71.16995814501368" width="244.43135999999998" id="textblock"><g><svg viewBox="0 0 244.43135999999998 44.11392532804757" height="44.11392532804757" width="244.43135999999998"><g transform="matrix(1,0,0,1,0,0)"><svg width="244.43135999999998" viewBox="2.319999933242798 -35.81999969482422 246.3199920654297 44.459999084472656" height="44.11392532804757" data-palette-color="#0063db"><path d="M2.34-20.12L8.18-25.93 12.5-25.93 12.5-16.77 24.8-16.77 30.42-11.11 30.42-6.05 24.39 0 19.63 0 19.63-9.79 7.96-9.79 2.34-15.19 2.34-20.12ZM13.13-7.42L13.13-4.76 17.92-4.76 17.92 0 6.81-0.02 2.32-5.35 2.32-7.42 13.13-7.42ZM19.63-19.14L19.63-21.17 14.21-21.17 14.21-25.93 25.68-25.93 29.54-22.07 29.54-19.14 19.63-19.14ZM34.64 0L34.64-35.82 45.43-35.82 45.43 0 34.64 0ZM51.9 0L51.9-19.46 47.14-19.46 47.14-22.73 50.31-25.93 56.22-25.93 62.72-19.46 62.72 0 51.9 0ZM96.48-19.46L96.48-6.47 90.01 0 82.78 0 82.78-6.05 85.47-6.05 85.47-19.46 82.78-19.46 82.78-25.93 90.01-25.93 96.48-19.46ZM78.27-19.46L78.27-6.05 81.07-6.05 81.07 0 73.82 0 67.35-6.47 67.35-19.46 73.82-25.93 81.07-25.93 81.07-19.46 78.27-19.46ZM112.13 8.64L101.34 8.64 101.34-25.93 112.13-25.93 112.13 8.64ZM118.6-6.05L118.6-19.46 113.84-19.46 113.84-22.73 117.01-25.93 122.92-25.93 129.41-19.46 129.41-6.47 122.92 0 113.84 0 113.84-6.05 118.6-6.05ZM145.06-35.82L145.06 0 134.27 0 134.27-35.82 145.06-35.82ZM162.88-25.9L146.74-3.66 146.74-18.46 151.72-25.88 162.88-25.9ZM156.31-13.82L163.44 0 151.72 0 149.94-5.22 156.31-13.82ZM193.93 0L183.39 0 183.39-19.46 168.03-19.46 168.03-22.68 171.28-25.93 187.46-25.93 193.93-19.46 193.93 0ZM170.2-15.09L181.68-15.09 181.68-10.6 176.11-10.6 176.11-6.05 181.68-6.05 181.68-3.2 178.45 0 170.2 0 165.86-4.27 165.86-10.77 170.2-15.09ZM215.9-13.16L215.9-19.46 211.31-19.46 211.31-22.29 214.93-25.93 221.47-25.93 226.72-19.87 226.72-13.16 215.9-13.16ZM209.58 0L198.79 0 198.79-25.93 209.58-25.93 209.58 0ZM241.12-32.4L241.12-6.47 248.25-6.47 248.25 0 236.82 0 230.33-6.47 230.33-19.46 228.18-19.46 228.18-25.93 230.33-25.93 230.33-28.74 241.12-32.4ZM248.64-19.46L242.83-19.46 242.83-25.93 248.64-25.93 248.64-19.46Z" opacity="1" transform="matrix(1,0,0,1,0,0)" fill="#ffffff" class="wordmark-text-0" data-fill-palette-color="primary" id="text-0"></path></svg></g></svg></g><g transform="matrix(1,0,0,1,0,54.52816436379173)"><svg viewBox="0 0 244.43135999999998 16.641793781221946" height="16.641793781221946" width="244.43135999999998"><g transform="matrix(1,0,0,1,0,0)"><svg width="244.43135999999998" viewBox="2.4276316165924072 -37 690.2523803710938 47" height="16.641793781221946" data-palette-color="#0063db"><path d="M2.75-4L2.75-4Q2.4-4.6 2.43-4.98 2.45-5.35 2.8-5.6L2.8-5.6Q3.05-5.85 3.48-5.83 3.9-5.8 4.2-5.45L4.2-5.45Q5.5-3.6 7.53-2.45 9.55-1.3 12.3-1.3L12.3-1.3Q13.95-1.3 15.48-1.85 17-2.4 17.98-3.5 18.95-4.6 18.95-6.2L18.95-6.2Q18.95-7.9 18-8.93 17.05-9.95 15.55-10.55 14.05-11.15 12.4-11.55L12.4-11.55Q10.65-12 9.08-12.58 7.5-13.15 6.3-14.03 5.1-14.9 4.4-16.1 3.7-17.3 3.7-18.95L3.7-18.95Q3.7-20.9 4.75-22.45 5.8-24 7.7-24.88 9.6-25.75 12.1-25.75L12.1-25.75Q13.3-25.75 14.65-25.45 16-25.15 17.35-24.43 18.7-23.7 19.85-22.4L19.85-22.4Q20.25-22.1 20.23-21.68 20.2-21.25 19.85-20.9L19.85-20.9Q19.55-20.7 19.2-20.7 18.85-20.7 18.6-21L18.6-21Q17.3-22.45 15.58-23.15 13.85-23.85 11.9-23.85L11.9-23.85Q10.25-23.85 8.83-23.3 7.4-22.75 6.5-21.68 5.6-20.6 5.6-18.95L5.6-18.95Q5.7-17.4 6.68-16.4 7.65-15.4 9.28-14.75 10.9-14.1 12.95-13.55L12.95-13.55Q14.6-13.15 16.03-12.63 17.45-12.1 18.53-11.3 19.6-10.5 20.23-9.3 20.85-8.1 20.85-6.3L20.85-6.3Q20.85-4.2 19.73-2.68 18.6-1.15 16.63-0.33 14.65 0.5 12.1 0.5L12.1 0.5Q9.5 0.5 7.1-0.55 4.7-1.6 2.75-4ZM38.3-25.25L38.3-25.25Q41.3-25.25 43.27-23.95 45.25-22.65 46.22-20.45 47.2-18.25 47.2-15.6L47.2-15.6 47.2-1Q47.2-0.6 46.9-0.3 46.6 0 46.2 0L46.2 0Q45.75 0 45.47-0.3 45.2-0.6 45.2-1L45.2-1 45.2-15.6Q45.2-17.75 44.5-19.5 43.8-21.25 42.3-22.3 40.8-23.35 38.3-23.35L38.3-23.35Q36.15-23.35 34.1-22.3 32.05-21.25 30.72-19.5 29.4-17.75 29.4-15.6L29.4-15.6 29.4-1Q29.4-0.6 29.1-0.3 28.8 0 28.4 0L28.4 0Q27.95 0 27.67-0.3 27.4-0.6 27.4-1L27.4-1 27.4-36Q27.4-36.4 27.7-36.7 28-37 28.4-37L28.4-37Q28.85-37 29.12-36.7 29.4-36.4 29.4-36L29.4-36 29.4-18.55 28.15-16.15Q28.15-17.95 29.05-19.6 29.95-21.25 31.42-22.53 32.9-23.8 34.7-24.53 36.5-25.25 38.3-25.25ZM78.39-12.6L78.39-12.6Q78.39-8.9 76.8-5.93 75.19-2.95 72.42-1.23 69.64 0.5 66.09 0.5L66.09 0.5Q62.59 0.5 59.8-1.23 56.99-2.95 55.37-5.93 53.74-8.9 53.74-12.6L53.74-12.6Q53.74-16.35 55.37-19.33 56.99-22.3 59.8-24.03 62.59-25.75 66.09-25.75L66.09-25.75Q69.64-25.75 72.42-24.03 75.19-22.3 76.8-19.33 78.39-16.35 78.39-12.6ZM76.39-12.6L76.39-12.6Q76.39-15.85 75.07-18.38 73.75-20.9 71.42-22.38 69.09-23.85 66.09-23.85L66.09-23.85Q63.14-23.85 60.8-22.38 58.45-20.9 57.09-18.38 55.74-15.85 55.74-12.6L55.74-12.6Q55.74-9.4 57.09-6.88 58.45-4.35 60.8-2.88 63.14-1.4 66.09-1.4L66.09-1.4Q69.09-1.4 71.42-2.88 73.75-4.35 75.07-6.88 76.39-9.4 76.39-12.6ZM96.54-25.25L96.54-25.25Q99.89-25.25 102.49-23.6 105.09-21.95 106.62-19.07 108.14-16.2 108.14-12.5L108.14-12.5Q108.14-8.85 106.62-5.95 105.09-3.05 102.47-1.38 99.84 0.3 96.54 0.3L96.54 0.3Q94.89 0.3 93.37-0.18 91.84-0.65 90.54-1.53 89.24-2.4 88.17-3.7 87.09-5 86.29-6.65L86.29-6.65 86.94-7.35 86.94 9Q86.94 9.4 86.67 9.7 86.39 10 85.94 10L85.94 10Q85.54 10 85.24 9.7 84.94 9.4 84.94 9L84.94 9 84.94-24.25Q84.94-24.65 85.22-24.95 85.49-25.25 85.94-25.25L85.94-25.25Q86.39-25.25 86.67-24.95 86.94-24.65 86.94-24.25L86.94-24.25 86.94-17.85 86.29-18.2Q86.99-20.05 88.04-21.4 89.09-22.75 90.44-23.6 91.79-24.45 93.34-24.85 94.89-25.25 96.54-25.25ZM96.44-23.35L96.44-23.35Q93.59-23.35 91.42-21.95 89.24-20.55 87.99-18.13 86.74-15.7 86.74-12.5L86.74-12.5Q86.74-9.35 87.99-6.88 89.24-4.4 91.42-3 93.59-1.6 96.44-1.6L96.44-1.6Q99.24-1.6 101.42-3 103.59-4.4 104.87-6.88 106.14-9.35 106.14-12.5L106.14-12.5Q106.14-15.65 104.87-18.1 103.59-20.55 101.42-21.95 99.24-23.35 96.44-23.35ZM158.39-25.85L158.39-25.85Q158.79-25.85 159.11-25.63 159.44-25.4 159.44-24.9L159.44-24.9Q159.44-24.85 159.41-24.68 159.39-24.5 159.34-24.4L159.34-24.4 151.59-0.65Q151.44-0.35 151.19-0.18 150.94 0 150.64 0L150.64 0Q150.04 0 149.69-0.65L149.69-0.65 141.99-18 142.74-17.75 135.94-0.65Q135.69 0 134.99 0L134.99 0Q134.69 0 134.41-0.18 134.14-0.35 134.04-0.65L134.04-0.65 126.04-24.4Q125.94-24.7 125.94-24.9L125.94-24.9Q125.94-25.35 126.24-25.6 126.54-25.85 126.99-25.85L126.99-25.85Q127.29-25.85 127.54-25.68 127.79-25.5 127.89-25.2L127.89-25.2 135.34-2.25 134.49-2.25 141.59-19.85Q141.84-20.5 142.54-20.5L142.54-20.5Q142.84-20.5 143.11-20.33 143.39-20.15 143.49-19.85L143.49-19.85 151.14-2.2 150.14-2.2 157.49-25.2Q157.74-25.85 158.39-25.85ZM176.39-25.25L176.39-25.25Q179.39-25.25 181.36-23.95 183.34-22.65 184.31-20.45 185.29-18.25 185.29-15.6L185.29-15.6 185.29-1Q185.29-0.6 184.99-0.3 184.69 0 184.29 0L184.29 0Q183.84 0 183.56-0.3 183.29-0.6 183.29-1L183.29-1 183.29-15.6Q183.29-17.75 182.59-19.5 181.89-21.25 180.39-22.3 178.89-23.35 176.39-23.35L176.39-23.35Q174.24-23.35 172.19-22.3 170.14-21.25 168.81-19.5 167.49-17.75 167.49-15.6L167.49-15.6 167.49-1Q167.49-0.6 167.19-0.3 166.89 0 166.49 0L166.49 0Q166.03 0 165.76-0.3 165.49-0.6 165.49-1L165.49-1 165.49-36Q165.49-36.4 165.78-36.7 166.09-37 166.49-37L166.49-37Q166.94-37 167.21-36.7 167.49-36.4 167.49-36L167.49-36 167.49-18.55 166.24-16.15Q166.24-17.95 167.14-19.6 168.03-21.25 169.51-22.53 170.99-23.8 172.78-24.53 174.59-25.25 176.39-25.25ZM214.03-24.95L214.03-24.95Q214.48-24.95 214.76-24.65 215.03-24.35 215.03-23.95L215.03-23.95 215.03-1Q215.03-0.6 214.73-0.3 214.43 0 214.03 0L214.03 0Q213.58 0 213.31-0.3 213.03-0.6 213.03-1L213.03-1 213.03-8.1 213.83-8.75Q213.83-7.15 213.03-5.5 212.23-3.85 210.83-2.5 209.43-1.15 207.53-0.33 205.63 0.5 203.43 0.5L203.43 0.5Q200.08 0.5 197.46-1.25 194.83-3 193.33-6 191.83-9 191.83-12.75L191.83-12.75Q191.83-16.55 193.36-19.48 194.88-22.4 197.51-24.08 200.13-25.75 203.43-25.75L203.43-25.75Q205.58-25.75 207.48-24.98 209.38-24.2 210.81-22.8 212.23-21.4 213.03-19.53 213.83-17.65 213.83-15.45L213.83-15.45 213.03-16.7 213.03-23.95Q213.03-24.35 213.31-24.65 213.58-24.95 214.03-24.95ZM203.53-1.4L203.53-1.4Q206.33-1.4 208.53-2.88 210.73-4.35 211.98-6.93 213.23-9.5 213.23-12.75L213.23-12.75Q213.23-15.85 211.98-18.38 210.73-20.9 208.53-22.38 206.33-23.85 203.53-23.85L203.53-23.85Q200.78-23.85 198.58-22.43 196.38-21 195.11-18.5 193.83-16 193.83-12.75L193.83-12.75Q193.83-9.5 195.08-6.93 196.33-4.35 198.53-2.88 200.73-1.4 203.53-1.4ZM221.03-25.15L221.03-25.15 232.63-25.15Q233.03-25.15 233.31-24.85 233.58-24.55 233.58-24.2L233.58-24.2Q233.58-23.8 233.31-23.53 233.03-23.25 232.63-23.25L232.63-23.25 221.03-23.25Q220.68-23.25 220.38-23.55 220.08-23.85 220.08-24.2L220.08-24.2Q220.08-24.6 220.38-24.88 220.68-25.15 221.03-25.15ZM226.13-32.5L226.13-32.5Q226.58-32.5 226.86-32.2 227.13-31.9 227.13-31.5L227.13-31.5 227.13-5.45Q227.13-3.8 227.56-3.03 227.98-2.25 228.63-2.02 229.28-1.8 229.88-1.8L229.88-1.8Q230.23-1.8 230.48-1.9 230.73-2 231.08-2L231.08-2Q231.43-2 231.68-1.73 231.93-1.45 231.93-1.1L231.93-1.1Q231.93-0.65 231.36-0.33 230.78 0 229.93 0L229.93 0Q229.63 0 228.86-0.03 228.08-0.05 227.21-0.48 226.33-0.9 225.73-2.02 225.13-3.15 225.13-5.35L225.13-5.35 225.13-31.5Q225.13-31.9 225.43-32.2 225.73-32.5 226.13-32.5ZM249.93 0.5L249.93 0.5Q246.18 0.5 243.3-1.1 240.43-2.7 238.78-5.63 237.13-8.55 237.13-12.5L237.13-12.5Q237.13-16.7 238.75-19.65 240.38-22.6 242.95-24.18 245.53-25.75 248.43-25.75L248.43-25.75Q250.53-25.75 252.53-25.08 254.53-24.4 256.1-22.98 257.68-21.55 258.65-19.43 259.63-17.3 259.73-14.35L259.73-14.35Q259.73-13.95 259.43-13.63 259.13-13.3 258.73-13.3L258.73-13.3 238.33-13.3 238.03-15.2 258.18-15.2 257.68-14.75 257.68-15.65Q257.43-18.3 256-20.1 254.58-21.9 252.58-22.83 250.58-23.75 248.43-23.75L248.43-23.75Q246.93-23.75 245.28-23.08 243.63-22.4 242.23-21.03 240.83-19.65 239.95-17.55 239.08-15.45 239.08-12.65L239.08-12.65Q239.08-9.6 240.3-7.05 241.53-4.5 243.95-2.95 246.38-1.4 249.93-1.4L249.93-1.4Q251.63-1.4 253.13-1.98 254.63-2.55 255.83-3.5 257.03-4.45 257.78-5.55L257.78-5.55Q258.18-6 258.63-6L258.63-6Q258.98-6 259.23-5.73 259.48-5.45 259.48-5.1L259.48-5.1Q259.48-4.75 259.28-4.5L259.28-4.5Q257.73-2.5 255.3-1 252.88 0.5 249.93 0.5ZM264.82-25.85L264.82-25.85Q265.07-25.85 265.35-25.68 265.63-25.5 265.73-25.2L265.73-25.2 274.98-3.05 274.48-2.7 283.88-25.2Q284.13-25.85 284.93-25.85L284.93-25.85Q285.18-25.85 285.52-25.65 285.88-25.45 285.88-25.05L285.88-25.05Q285.88-24.8 285.82-24.68 285.77-24.55 285.73-24.45L285.73-24.45 275.77-0.65Q275.52 0 274.82 0L274.82 0Q274.52 0 274.25-0.18 273.98-0.35 273.88-0.65L273.88-0.65 263.88-24.4Q263.82-24.5 263.8-24.63 263.77-24.75 263.77-24.85L263.77-24.85Q263.77-25.25 264.02-25.55 264.27-25.85 264.82-25.85ZM302.72 0.5L302.72 0.5Q298.97 0.5 296.1-1.1 293.22-2.7 291.57-5.63 289.92-8.55 289.92-12.5L289.92-12.5Q289.92-16.7 291.55-19.65 293.17-22.6 295.75-24.18 298.32-25.75 301.22-25.75L301.22-25.75Q303.32-25.75 305.32-25.08 307.32-24.4 308.9-22.98 310.47-21.55 311.45-19.43 312.42-17.3 312.52-14.35L312.52-14.35Q312.52-13.95 312.22-13.63 311.92-13.3 311.52-13.3L311.52-13.3 291.12-13.3 290.82-15.2 310.97-15.2 310.47-14.75 310.47-15.65Q310.22-18.3 308.8-20.1 307.37-21.9 305.37-22.83 303.37-23.75 301.22-23.75L301.22-23.75Q299.72-23.75 298.07-23.08 296.42-22.4 295.02-21.03 293.62-19.65 292.75-17.55 291.87-15.45 291.87-12.65L291.87-12.65Q291.87-9.6 293.1-7.05 294.32-4.5 296.75-2.95 299.17-1.4 302.72-1.4L302.72-1.4Q304.42-1.4 305.92-1.98 307.42-2.55 308.62-3.5 309.82-4.45 310.57-5.55L310.57-5.55Q310.97-6 311.42-6L311.42-6Q311.77-6 312.02-5.73 312.27-5.45 312.27-5.1L312.27-5.1Q312.27-4.75 312.07-4.5L312.07-4.5Q310.52-2.5 308.1-1 305.67 0.5 302.72 0.5ZM320.07 0L320.07 0Q319.62 0 319.34-0.3 319.07-0.6 319.07-1L319.07-1 319.07-23.95Q319.07-24.35 319.37-24.65 319.67-24.95 320.07-24.95L320.07-24.95Q320.52-24.95 320.79-24.65 321.07-24.35 321.07-23.95L321.07-23.95 321.07-15.5 320.22-14.2Q320.22-16.15 320.89-18.15 321.57-20.15 322.87-21.88 324.17-23.6 326.04-24.68 327.92-25.75 330.37-25.75L330.37-25.75Q331.07-25.75 331.87-25.55 332.67-25.35 332.67-24.6L332.67-24.6Q332.67-24.15 332.42-23.85 332.17-23.55 331.77-23.55L331.77-23.55Q331.47-23.55 331.04-23.78 330.62-24 329.82-24L329.82-24Q328.22-24 326.67-23.05 325.12-22.1 323.84-20.53 322.57-18.95 321.82-17.1 321.07-15.25 321.07-13.5L321.07-13.5 321.07-1Q321.07-0.6 320.77-0.3 320.47 0 320.07 0ZM352.96-24.75L352.96-1Q352.96-0.6 352.66-0.3 352.36 0 351.96 0L351.96 0Q351.51 0 351.24-0.3 350.96-0.6 350.96-1L350.96-1 350.96-24.75Q350.96-25.15 351.26-25.45 351.56-25.75 351.96-25.75L351.96-25.75Q352.41-25.75 352.69-25.45 352.96-25.15 352.96-24.75L352.96-24.75ZM351.96-29.15L351.96-29.15Q351.16-29.15 350.69-29.6 350.21-30.05 350.21-30.75L350.21-30.75 350.21-31.15Q350.21-31.85 350.71-32.3 351.21-32.75 352.01-32.75L352.01-32.75Q352.71-32.75 353.19-32.3 353.66-31.85 353.66-31.15L353.66-31.15 353.66-30.75Q353.66-30.05 353.19-29.6 352.71-29.15 351.96-29.15ZM359.86-4L359.86-4Q359.51-4.6 359.54-4.98 359.56-5.35 359.91-5.6L359.91-5.6Q360.16-5.85 360.59-5.83 361.01-5.8 361.31-5.45L361.31-5.45Q362.61-3.6 364.64-2.45 366.66-1.3 369.41-1.3L369.41-1.3Q371.06-1.3 372.59-1.85 374.11-2.4 375.09-3.5 376.06-4.6 376.06-6.2L376.06-6.2Q376.06-7.9 375.11-8.93 374.16-9.95 372.66-10.55 371.16-11.15 369.51-11.55L369.51-11.55Q367.76-12 366.19-12.58 364.61-13.15 363.41-14.03 362.21-14.9 361.51-16.1 360.81-17.3 360.81-18.95L360.81-18.95Q360.81-20.9 361.86-22.45 362.91-24 364.81-24.88 366.71-25.75 369.21-25.75L369.21-25.75Q370.41-25.75 371.76-25.45 373.11-25.15 374.46-24.43 375.81-23.7 376.96-22.4L376.96-22.4Q377.36-22.1 377.34-21.68 377.31-21.25 376.96-20.9L376.96-20.9Q376.66-20.7 376.31-20.7 375.96-20.7 375.71-21L375.71-21Q374.41-22.45 372.69-23.15 370.96-23.85 369.01-23.85L369.01-23.85Q367.36-23.85 365.94-23.3 364.51-22.75 363.61-21.68 362.71-20.6 362.71-18.95L362.71-18.95Q362.81-17.4 363.79-16.4 364.76-15.4 366.39-14.75 368.01-14.1 370.06-13.55L370.06-13.55Q371.71-13.15 373.14-12.63 374.56-12.1 375.64-11.3 376.71-10.5 377.34-9.3 377.96-8.1 377.96-6.3L377.96-6.3Q377.96-4.2 376.84-2.68 375.71-1.15 373.74-0.33 371.76 0.5 369.21 0.5L369.21 0.5Q366.61 0.5 364.21-0.55 361.81-1.6 359.86-4ZM420.91-12.6L420.91-12.6Q420.91-8.9 419.31-5.93 417.71-2.95 414.93-1.23 412.16 0.5 408.61 0.5L408.61 0.5Q405.11 0.5 402.31-1.23 399.51-2.95 397.88-5.93 396.26-8.9 396.26-12.6L396.26-12.6Q396.26-16.35 397.88-19.33 399.51-22.3 402.31-24.03 405.11-25.75 408.61-25.75L408.61-25.75Q412.16-25.75 414.93-24.03 417.71-22.3 419.31-19.33 420.91-16.35 420.91-12.6ZM418.91-12.6L418.91-12.6Q418.91-15.85 417.58-18.38 416.26-20.9 413.93-22.38 411.61-23.85 408.61-23.85L408.61-23.85Q405.66-23.85 403.31-22.38 400.96-20.9 399.61-18.38 398.26-15.85 398.26-12.6L398.26-12.6Q398.26-9.4 399.61-6.88 400.96-4.35 403.31-2.88 405.66-1.4 408.61-1.4L408.61-1.4Q411.61-1.4 413.93-2.88 416.26-4.35 417.58-6.88 418.91-9.4 418.91-12.6ZM438.8-25.75L438.8-25.75Q441.95-25.75 443.93-24.5 445.9-23.25 446.83-21.1 447.75-18.95 447.75-16.3L447.75-16.3 447.75-1Q447.75-0.6 447.45-0.3 447.15 0 446.75 0L446.75 0Q446.3 0 446.03-0.3 445.75-0.6 445.75-1L445.75-1 445.75-16.1Q445.75-18.25 445.03-20 444.3-21.75 442.73-22.8 441.15-23.85 438.6-23.85L438.6-23.85Q436.4-23.85 434.3-22.8 432.2-21.75 430.83-20 429.45-18.25 429.45-16.1L429.45-16.1 429.45-1Q429.45-0.6 429.15-0.3 428.85 0 428.45 0L428.45 0Q428 0 427.73-0.3 427.45-0.6 427.45-1L427.45-1 427.45-23.95Q427.45-24.35 427.75-24.65 428.05-24.95 428.45-24.95L428.45-24.95Q428.9-24.95 429.18-24.65 429.45-24.35 429.45-23.95L429.45-23.95 429.45-19.05 428.2-16.65Q428.2-18.45 429.15-20.1 430.1-21.75 431.65-23.03 433.2-24.3 435.08-25.03 436.95-25.75 438.8-25.75ZM488.35-25.75L488.35-25.75Q488.8-25.75 489.07-25.45 489.35-25.15 489.35-24.75L489.35-24.75 489.35-2.45Q489.35 1.4 487.8 4.2 486.25 7 483.6 8.5 480.95 10 477.55 10L477.55 10Q475.25 10 473.42 9.45 471.6 8.9 470.45 8.1L470.45 8.1Q470.1 7.85 469.9 7.5 469.7 7.15 469.9 6.75L469.9 6.75Q470.1 6.35 470.47 6.2 470.85 6.05 471.2 6.3L471.2 6.3Q472.05 6.8 473.77 7.5 475.5 8.2 477.65 8.2L477.65 8.2Q480.55 8.2 482.72 6.85 484.9 5.5 486.13 3.1 487.35 0.7 487.35-2.45L487.35-2.45 487.35-6.15 487.45-4.9Q486.75-3.4 485.32-2.18 483.9-0.95 482.13-0.23 480.35 0.5 478.45 0.5L478.45 0.5Q475.35 0.5 473.38-0.73 471.4-1.95 470.47-4.1 469.55-6.25 469.55-9.15L469.55-9.15 469.55-24.75Q469.55-25.15 469.82-25.45 470.1-25.75 470.55-25.75L470.55-25.75Q471-25.75 471.27-25.45 471.55-25.15 471.55-24.75L471.55-24.75 471.55-9.15Q471.55-5.6 473.13-3.5 474.7-1.4 478.45-1.4L478.45-1.4Q480.7-1.4 482.72-2.53 484.75-3.65 486.05-5.45 487.35-7.25 487.35-9.15L487.35-9.15 487.35-24.75Q487.35-25.15 487.63-25.45 487.9-25.75 488.35-25.75ZM520.3-12.6L520.3-12.6Q520.3-8.9 518.7-5.93 517.1-2.95 514.32-1.23 511.55 0.5 508 0.5L508 0.5Q504.5 0.5 501.7-1.23 498.9-2.95 497.27-5.93 495.65-8.9 495.65-12.6L495.65-12.6Q495.65-16.35 497.27-19.33 498.9-22.3 501.7-24.03 504.5-25.75 508-25.75L508-25.75Q511.55-25.75 514.32-24.03 517.1-22.3 518.7-19.33 520.3-16.35 520.3-12.6ZM518.3-12.6L518.3-12.6Q518.3-15.85 516.97-18.38 515.65-20.9 513.32-22.38 511-23.85 508-23.85L508-23.85Q505.05-23.85 502.7-22.38 500.35-20.9 499-18.38 497.65-15.85 497.65-12.6L497.65-12.6Q497.65-9.4 499-6.88 500.35-4.35 502.7-2.88 505.05-1.4 508-1.4L508-1.4Q511-1.4 513.32-2.88 515.65-4.35 516.97-6.88 518.3-9.4 518.3-12.6ZM545.69-24.95L545.69-24.95Q546.14-24.95 546.42-24.65 546.69-24.35 546.69-23.95L546.69-23.95 546.69-9.4Q546.69-4.55 543.97-2.13 541.24 0.3 536.74 0.3L536.74 0.3Q532.29 0.3 529.57-2.13 526.84-4.55 526.84-9.4L526.84-9.4 526.84-23.95Q526.84-24.35 527.14-24.65 527.44-24.95 527.84-24.95L527.84-24.95Q528.29-24.95 528.57-24.65 528.84-24.35 528.84-23.95L528.84-23.95 528.84-9.4Q528.84-5.6 530.97-3.6 533.09-1.6 536.74-1.6L536.74-1.6Q540.44-1.6 542.57-3.6 544.69-5.6 544.69-9.4L544.69-9.4 544.69-23.95Q544.69-24.35 544.97-24.65 545.24-24.95 545.69-24.95ZM555.99 0L555.99 0Q555.54 0 555.27-0.3 554.99-0.6 554.99-1L554.99-1 554.99-23.95Q554.99-24.35 555.29-24.65 555.59-24.95 555.99-24.95L555.99-24.95Q556.44-24.95 556.72-24.65 556.99-24.35 556.99-23.95L556.99-23.95 556.99-15.5 556.14-14.2Q556.14-16.15 556.82-18.15 557.49-20.15 558.79-21.88 560.09-23.6 561.97-24.68 563.84-25.75 566.29-25.75L566.29-25.75Q566.99-25.75 567.79-25.55 568.59-25.35 568.59-24.6L568.59-24.6Q568.59-24.15 568.34-23.85 568.09-23.55 567.69-23.55L567.69-23.55Q567.39-23.55 566.97-23.78 566.54-24 565.74-24L565.74-24Q564.14-24 562.59-23.05 561.04-22.1 559.77-20.53 558.49-18.95 557.74-17.1 556.99-15.25 556.99-13.5L556.99-13.5 556.99-1Q556.99-0.6 556.69-0.3 556.39 0 555.99 0ZM597.54-25.25L597.54-25.25Q600.34-25.25 602.66-23.73 604.99-22.2 605.84-18.95L605.84-18.95 605.19-18.5 605.44-19.45Q606.09-21.1 607.71-22.4 609.34-23.7 611.36-24.48 613.39-25.25 615.29-25.25L615.29-25.25Q618.29-25.25 620.24-23.95 622.19-22.65 623.11-20.48 624.04-18.3 624.04-15.55L624.04-15.55 624.04-1Q624.04-0.6 623.76-0.3 623.49 0 623.04 0L623.04 0Q622.59 0 622.31-0.3 622.04-0.6 622.04-1L622.04-1 622.04-15.35Q622.04-17.55 621.31-19.38 620.59-21.2 619.06-22.28 617.54-23.35 615.09-23.35L615.09-23.35Q612.94-23.35 610.89-22.28 608.84-21.2 607.51-19.38 606.19-17.55 606.19-15.35L606.19-15.35 606.19-1Q606.19-0.6 605.91-0.3 605.64 0 605.19 0L605.19 0Q604.74 0 604.46-0.3 604.19-0.6 604.19-1L604.19-1 604.19-15.6Q604.19-17.75 603.51-19.5 602.84-21.25 601.39-22.3 599.94-23.35 597.54-23.35L597.54-23.35Q595.44-23.35 593.46-22.3 591.49-21.25 590.19-19.5 588.89-17.75 588.89-15.6L588.89-15.6 588.89-1Q588.89-0.6 588.59-0.3 588.29 0 587.89 0L587.89 0Q587.44 0 587.16-0.3 586.89-0.6 586.89-1L586.89-1 586.89-23.95Q586.89-24.35 587.19-24.65 587.49-24.95 587.89-24.95L587.89-24.95Q588.34-24.95 588.61-24.65 588.89-24.35 588.89-23.95L588.89-23.95 588.89-18.5 587.39-15.95Q587.39-17.7 588.24-19.35 589.09-21 590.51-22.33 591.94-23.65 593.76-24.45 595.59-25.25 597.54-25.25ZM634.33-24.75L634.33-1Q634.33-0.6 634.03-0.3 633.73 0 633.33 0L633.33 0Q632.88 0 632.61-0.3 632.33-0.6 632.33-1L632.33-1 632.33-24.75Q632.33-25.15 632.63-25.45 632.93-25.75 633.33-25.75L633.33-25.75Q633.78-25.75 634.06-25.45 634.33-25.15 634.33-24.75L634.33-24.75ZM633.33-29.15L633.33-29.15Q632.53-29.15 632.06-29.6 631.58-30.05 631.58-30.75L631.58-30.75 631.58-31.15Q631.58-31.85 632.08-32.3 632.58-32.75 633.38-32.75L633.38-32.75Q634.08-32.75 634.56-32.3 635.03-31.85 635.03-31.15L635.03-31.15 635.03-30.75Q635.03-30.05 634.56-29.6 634.08-29.15 633.33-29.15ZM653.98-25.75L653.98-25.75Q657.13-25.75 659.11-24.5 661.08-23.25 662.01-21.1 662.93-18.95 662.93-16.3L662.93-16.3 662.93-1Q662.93-0.6 662.63-0.3 662.33 0 661.93 0L661.93 0Q661.48 0 661.21-0.3 660.93-0.6 660.93-1L660.93-1 660.93-16.1Q660.93-18.25 660.21-20 659.48-21.75 657.91-22.8 656.33-23.85 653.78-23.85L653.78-23.85Q651.58-23.85 649.48-22.8 647.38-21.75 646.01-20 644.63-18.25 644.63-16.1L644.63-16.1 644.63-1Q644.63-0.6 644.33-0.3 644.03 0 643.63 0L643.63 0Q643.18 0 642.91-0.3 642.63-0.6 642.63-1L642.63-1 642.63-23.95Q642.63-24.35 642.93-24.65 643.23-24.95 643.63-24.95L643.63-24.95Q644.08-24.95 644.36-24.65 644.63-24.35 644.63-23.95L644.63-23.95 644.63-19.05 643.38-16.65Q643.38-18.45 644.33-20.1 645.28-21.75 646.83-23.03 648.38-24.3 650.26-25.03 652.13-25.75 653.98-25.75ZM691.68-37L691.68-37Q692.13-37 692.4-36.7 692.68-36.4 692.68-36L692.68-36 692.68-1Q692.68-0.6 692.38-0.3 692.08 0 691.68 0L691.68 0Q691.23 0 690.95-0.3 690.68-0.6 690.68-1L690.68-1 690.68-8.1 691.48-9.2Q691.48-7.5 690.7-5.78 689.93-4.05 688.5-2.63 687.08-1.2 685.18-0.35 683.28 0.5 681.08 0.5L681.08 0.5Q677.78 0.5 675.15-1.23 672.53-2.95 671-5.93 669.48-8.9 669.48-12.65L669.48-12.65Q669.48-16.4 671-19.38 672.53-22.35 675.15-24.05 677.78-25.75 681.08-25.75L681.08-25.75Q683.13-25.75 685-24.98 686.88-24.2 688.33-22.8 689.78-21.4 690.63-19.53 691.48-17.65 691.48-15.45L691.48-15.45 690.68-16.7 690.68-36Q690.68-36.4 690.95-36.7 691.23-37 691.68-37ZM681.18-1.4L681.18-1.4Q684.03-1.4 686.2-2.85 688.38-4.3 689.63-6.85 690.88-9.4 690.88-12.65L690.88-12.65Q690.88-15.9 689.63-18.43 688.38-20.95 686.18-22.4 683.98-23.85 681.18-23.85L681.18-23.85Q678.43-23.85 676.23-22.4 674.03-20.95 672.75-18.43 671.48-15.9 671.48-12.65L671.48-12.65Q671.48-9.45 672.75-6.9 674.03-4.35 676.23-2.88 678.43-1.4 681.18-1.4Z" opacity="1" transform="matrix(1,0,0,1,0,0)" fill="#ffffff" class="slogan-text-1" data-fill-palette-color="secondary" id="text-1"></path></svg></g></svg></g></svg></g></svg></g></svg></g></svg></g></svg></g><g><path d="M245.816 0c68.262 0 123.6 55.338 123.6 123.6 0 68.262-55.338 123.6-123.6 123.6-53.969 0-99.858-34.589-116.711-82.808l2.11 0c16.766 47.1 61.746 80.819 114.601 80.819 67.164 0 121.611-54.447 121.611-121.611 0-67.164-54.447-121.611-121.611-121.611-52.855 0-97.834 33.719-114.601 80.819l-2.11 0c16.852-48.219 62.742-82.808 116.711-82.808z" fill="#ffffff" stroke="transparent" data-fill-palette-color="tertiary"></path></g></svg></g><defs></defs></svg><rect width="395.52" height="247.2" fill="none" stroke="none" visibility="hidden"></rect></g></svg></g></svg>